<svg width="252" height="44" viewBox="0 0 252 44" fill="none" xmlns="http://www.w3.org/2000/svg">
<path d="M27.1309 43H13.3955L0.283203 2.38867H13.4521L19.6543 27.3955C20.1452 29.4157 20.4189 30.9261 20.4756 31.9268H20.7588C20.8721 30.6618 21.1647 29.0947 21.6367 27.2256L27.6689 2.38867H40.4131L27.1309 43ZM62.0781 43V38.5254H61.9648C60.9642 39.9036 60.0579 40.9137 59.2461 41.5557C58.4531 42.1976 57.5469 42.7168 56.5273 43.1133C55.5267 43.5098 54.3561 43.708 53.0156 43.708C49.8438 43.708 47.4271 42.679 45.7656 40.6211C44.1042 38.5632 43.2734 35.5234 43.2734 31.502V14H55.3379V30.5957C55.3379 33.4466 56.4046 34.8721 58.5381 34.8721C59.7087 34.8721 60.5866 34.485 61.1719 33.7109C61.776 32.9368 62.0781 31.8418 62.0781 30.4258V14H74.1426V43H62.0781ZM90.3135 31.9268C90.5212 33.1729 91.2386 34.1546 92.4658 34.8721C93.693 35.5706 95.3167 35.9199 97.3369 35.9199C100.15 35.9199 102.812 35.3818 105.323 34.3057V41.9521C102.397 43.1227 98.8473 43.708 94.6748 43.708C89.6149 43.708 85.6784 42.4147 82.8652 39.8281C80.0521 37.2415 78.6455 33.6826 78.6455 29.1514C78.6455 26.0361 79.2591 23.2891 80.4863 20.9102C81.7324 18.5312 83.5638 16.6715 85.9805 15.3311C88.416 13.9717 91.097 13.292 94.0234 13.292C97.0254 13.292 99.5931 13.8773 101.727 15.0479C103.86 16.2184 105.474 17.861 106.569 19.9756C107.683 22.0902 108.24 24.5635 108.24 27.3955V31.9268H90.3135ZM97.5635 25.6113C97.5635 22.2695 96.3646 20.5986 93.9668 20.5986C92.9661 20.5986 92.126 21.0612 91.4463 21.9863C90.7666 22.8926 90.3701 24.1009 90.2568 25.6113H97.5635ZM134.068 11.9609V43H121.777V11.9609H110.421V2.38867H145.566V11.9609H134.068ZM167.826 43V38.5254H167.713C166.712 39.9036 165.806 40.9137 164.994 41.5557C164.201 42.1976 163.295 42.7168 162.275 43.1133C161.275 43.5098 160.104 43.708 158.764 43.708C155.592 43.708 153.175 42.679 151.514 40.6211C149.852 38.5632 149.021 35.5234 149.021 31.502V14H161.086V30.5957C161.086 33.4466 162.153 34.8721 164.286 34.8721C165.457 34.8721 166.335 34.485 166.92 33.7109C167.524 32.9368 167.826 31.8418 167.826 30.4258V14H179.891V43H167.826ZM218.378 27.6221C218.378 30.7939 217.849 33.6071 216.792 36.0615C215.754 38.4971 214.271 40.3851 212.346 41.7256C210.42 43.0472 208.239 43.708 205.804 43.708C203.935 43.708 202.33 43.3682 200.989 42.6885C199.668 41.9899 198.62 41.0931 197.846 39.998H197.732V43H185.668V0.0664062H197.732V17.9365H197.846C198.79 16.5016 200.064 15.3688 201.669 14.5381C203.293 13.7074 205.077 13.292 207.021 13.292C210.684 13.292 213.488 14.5098 215.433 16.9453C217.396 19.3809 218.378 22.9398 218.378 27.6221ZM206.144 27.9902C206.144 26.0456 205.766 24.5824 205.011 23.6006C204.274 22.6188 203.208 22.1279 201.811 22.1279C200.583 22.1279 199.554 22.6471 198.724 23.6855C197.912 24.7051 197.506 26.0361 197.506 27.6787V29.4346C197.506 31.096 197.874 32.4176 198.61 33.3994C199.347 34.3812 200.338 34.8721 201.584 34.8721C203.038 34.8721 204.161 34.2773 204.954 33.0879C205.747 31.8796 206.144 30.1803 206.144 27.9902ZM233.331 31.9268C233.539 33.1729 234.256 34.1546 235.483 34.8721C236.711 35.5706 238.334 35.9199 240.354 35.9199C243.168 35.9199 245.83 35.3818 248.341 34.3057V41.9521C245.414 43.1227 241.865 43.708 237.692 43.708C232.632 43.708 228.696 42.4147 225.883 39.8281C223.07 37.2415 221.663 33.6826 221.663 29.1514C221.663 26.0361 222.277 23.2891 223.504 20.9102C224.75 18.5312 226.581 16.6715 228.998 15.3311C231.434 13.9717 234.115 13.292 237.041 13.292C240.043 13.292 242.611 13.8773 244.744 15.0479C246.878 16.2184 248.492 17.861 249.587 19.9756C250.701 22.0902 251.258 24.5635 251.258 27.3955V31.9268H233.331ZM240.581 25.6113C240.581 22.2695 239.382 20.5986 236.984 20.5986C235.984 20.5986 235.144 21.0612 234.464 21.9863C233.784 22.8926 233.388 24.1009 233.274 25.6113H240.581Z" fill="white"/>
</svg>
