<svg xmlns="http://www.w3.org/2000/svg" width="91" height="91" fill="none" viewBox="0 0 91 91"><path fill="#fff" fill-rule="evenodd" d="M61.5513 61.5141L40.809 82.2939C39.9604 83.1598 38.8531 83.7262 37.6544 83.9077C36.4556 84.0892 35.2303 83.876 34.1633 83.3002C33.0964 82.7243 32.2456 81.8172 31.7394 80.7155C31.2331 79.6138 31.0989 78.3773 31.3568 77.1927L34.9202 60.0137H13.7278C11.8689 60.0086 10.0402 59.5431 8.40511 58.6588C6.77004 57.7744 5.37954 56.4987 4.35785 54.9458C3.33616 53.3928 2.71512 51.6109 2.55022 49.7593C2.38532 47.9078 2.68171 46.0442 3.41289 44.3351L15.6407 15.791C16.8035 13.0529 19.5041 11.2524 22.5048 11.2524H56.2251C58.2147 11.2524 60.1228 12.0428 61.5296 13.4496C62.9365 14.8565 63.7268 16.7646 63.7268 18.7542V56.2253C63.7284 58.2063 62.9464 60.1075 61.5513 61.5141ZM73.4633 13.4496C74.8701 12.0428 76.7782 11.2524 78.7678 11.2524C80.7574 11.2524 82.6655 12.0428 84.0723 13.4496C85.4792 14.8565 86.2695 16.7646 86.2695 18.7542V52.4745C86.2695 56.6004 82.8938 59.9762 78.7678 59.9762C74.6419 59.9762 71.2661 56.6004 71.2661 52.4745V18.7542C71.2661 16.7646 72.0564 14.8565 73.4633 13.4496ZM46.5103 36.3834L27.3809 47.2609V25.5059L46.5103 36.3834Z" clip-rule="evenodd"/></svg>