{"asset":{"version":"2.0","generator":"VECTARY"},"nodes":[{"translation":[0.17931557850699023,0.2323121764367652,0.33815026954523253],"scale":[1,1,1],"rotation":[-0.19153722437858173,0.23508262897698634,0.047310205987963205,0.9517412430067292],"name":"Camera","camera":0},{"translation":[0,0,0],"scale":[0.001,0.001,0.001],"rotation":[-0.7071067811865475,0,0,0.7071067811865476],"name":"Plane","mesh":0},{"translation":[0,0,0],"scale":[0.001,0.001,0.001],"rotation":[-0.7071067811865475,0,0,0.7071067811865476],"name":"_switchable","mesh":1},{"translation":[0,0,0],"scale":[0.001,0.001,0.001],"rotation":[-0.7071067811865475,0,0,0.7071067811865476],"name":"Flash","mesh":2},{"translation":[0,0,0],"scale":[0.001,0.001,0.001],"rotation":[-0.7071067811865475,0,0,0.7071067811865476],"name":"Back Panel","mesh":3},{"translation":[0,0,0],"scale":[0.001,0.001,0.001],"rotation":[-0.7071067811865475,0,0,0.7071067811865476],"name":"Main Body","mesh":4},{"translation":[0,0,0],"scale":[0.001,0.001,0.001],"rotation":[-0.7071067811865475,0,0,0.7071067811865476],"name":"Ports","mesh":5},{"translation":[0,0,0],"scale":[0.001,0.001,0.001],"rotation":[-0.7071067811865475,0,0,0.7071067811865476],"name":"Side Button","mesh":6},{"translation":[0,0,0],"scale":[0.001,0.001,0.001],"rotation":[-0.7071067811865475,0,0,0.7071067811865476],"name":"Front Frame","mesh":7},{"translation":[0,0,0],"scale":[0.001,0.001,0.001],"rotation":[-0.7071067811865475,0,0,0.7071067811865476],"name":"Camera Rim","mesh":8},{"translation":[0,0,0],"scale":[0.001,0.001,0.001],"rotation":[-0.7071067811865475,0,0,0.7071067811865476],"name":"Camera Body","mesh":9},{"translation":[0,0,0],"scale":[0.001,0.001,0.001],"rotation":[-0.7071067811865475,0,0,0.7071067811865476],"name":"Cameras","mesh":10},{"translation":[0,0,0],"scale":[0.001,0.001,0.001],"rotation":[-0.7071067811865475,0,0,0.7071067811865476],"name":"Camers Lenses","mesh":11},{"translation":[0,0,0],"scale":[0.001,0.001,0.001],"rotation":[-0.7071067811865475,0,0,0.7071067811865476],"name":"Camera Lenses Out","mesh":12}],"cameras":[{"name":"Camera","type":"perspective","extras":{"targetDistance":0.4152266895792775},"perspective":{"aspectRatio":1.2766839378238342,"yfov":0.6108652381980153,"zfar":35.74218842285483,"znear":0.011242804349172752}}],"materials":[{"pbrMetallicRoughness":{"baseColorFactor":[0,0,0,1],"baseColorTexture":{"index":0,"extensions":{"KHR_texture_transform":{"offset":[0,0],"scale":[1,1],"rotation":0}},"texCoord":0},"metallicFactor":0,"roughnessFactor":1},"name":"_shadow","emissiveFactor":[0,0,0],"extensions":{},"alphaMode":"BLEND","doubleSided":false},{"pbrMetallicRoughness":{"baseColorFactor":[1,1,1,1],"baseColorTexture":{"index":1,"extensions":{"KHR_texture_transform":{"offset":[0,0],"scale":[1,1],"rotation":0}},"texCoord":0},"metallicFactor":0,"roughnessFactor":0.2},"name":"Play Time","emissiveTexture":{"index":2,"extensions":{"KHR_texture_transform":{"offset":[0,0],"scale":[1,1],"rotation":0}},"texCoord":0},"emissiveFactor":[0,0,0],"extensions":{},"alphaMode":"BLEND","doubleSided":false},{"pbrMetallicRoughness":{"baseColorFactor":[1,1,1,1],"baseColorTexture":{"index":3,"extensions":{"KHR_texture_transform":{"offset":[0,0],"scale":[1,1],"rotation":0}},"texCoord":0},"metallicFactor":0,"roughnessFactor":0.2},"name":"Flash","emissiveTexture":{"index":4,"extensions":{"KHR_texture_transform":{"offset":[0,0],"scale":[1,1],"rotation":0}},"texCoord":0},"emissiveFactor":[1,1,1],"extensions":{},"alphaMode":"OPAQUE","doubleSided":false},{"pbrMetallicRoughness":{"baseColorFactor":[0,0,0,1],"metallicFactor":0,"roughnessFactor":0},"name":"Rear Glass","emissiveFactor":[0,0,0],"occlusionTexture":{"index":5,"strength":1,"extensions":{"KHR_texture_transform":{"offset":[0,0],"scale":[1,1],"rotation":0}},"texCoord":1},"extensions":{},"alphaMode":"OPAQUE","doubleSided":false},{"pbrMetallicRoughness":{"baseColorFactor":[0,0,0,1],"metallicFactor":0.8,"roughnessFactor":0.8},"name":"Body","emissiveFactor":[0,0,0],"occlusionTexture":{"index":6,"strength":1,"extensions":{"KHR_texture_transform":{"offset":[0,0],"scale":[1,1],"rotation":0}},"texCoord":1},"extensions":{},"alphaMode":"OPAQUE","doubleSided":false},{"pbrMetallicRoughness":{"baseColorFactor":[0,0,0,1],"metallicFactor":0,"roughnessFactor":0.8},"name":"Ports","emissiveFactor":[0,0,0],"occlusionTexture":{"index":5,"strength":1,"extensions":{"KHR_texture_transform":{"offset":[0,0],"scale":[1,1],"rotation":0}},"texCoord":1},"extensions":{},"alphaMode":"OPAQUE","doubleSided":false},{"pbrMetallicRoughness":{"baseColorFactor":[0.6120655998656237,0.6120655998656237,0.6120655998656237,1],"metallicFactor":0,"roughnessFactor":0.2},"name":"Power Button","emissiveFactor":[0,0,0],"occlusionTexture":{"index":5,"strength":1,"extensions":{"KHR_texture_transform":{"offset":[0,0],"scale":[1,1],"rotation":0}},"texCoord":1},"extensions":{},"alphaMode":"OPAQUE","doubleSided":false},{"pbrMetallicRoughness":{"baseColorFactor":[0,0,0,1],"metallicFactor":0,"roughnessFactor":0},"name":"Front Glass","emissiveFactor":[0,0,0],"occlusionTexture":{"index":5,"strength":1,"extensions":{"KHR_texture_transform":{"offset":[0,0],"scale":[1,1],"rotation":0}},"texCoord":1},"extensions":{},"alphaMode":"OPAQUE","doubleSided":false},{"pbrMetallicRoughness":{"baseColorFactor":[0,0,0,1],"metallicFactor":0.92,"roughnessFactor":1},"name":"Camera Rim","emissiveFactor":[0,0,0],"occlusionTexture":{"index":5,"strength":1,"extensions":{"KHR_texture_transform":{"offset":[0,0],"scale":[1,1],"rotation":0}},"texCoord":1},"extensions":{},"alphaMode":"OPAQUE","doubleSided":false},{"pbrMetallicRoughness":{"baseColorFactor":[0,0,0,1],"metallicFactor":0,"roughnessFactor":0},"name":"Camera Body","emissiveFactor":[0,0,0],"occlusionTexture":{"index":5,"strength":1,"extensions":{"KHR_texture_transform":{"offset":[0,0],"scale":[1,1],"rotation":0}},"texCoord":1},"extensions":{},"alphaMode":"OPAQUE","doubleSided":false},{"pbrMetallicRoughness":{"baseColorFactor":[0.025371276904734584,0.025371276904734584,0.028991186547107816,1],"metallicFactor":0,"roughnessFactor":0},"name":"Camera Lenses","emissiveFactor":[0.02627450980392157,0.02627450980392157,0.030980392156862747],"occlusionTexture":{"index":5,"strength":1,"extensions":{"KHR_texture_transform":{"offset":[0,0],"scale":[1,1],"rotation":0}},"texCoord":1},"extensions":{},"alphaMode":"OPAQUE","doubleSided":false},{"pbrMetallicRoughness":{"baseColorFactor":[0,0,0,0.7],"metallicFactor":0,"roughnessFactor":0},"name":"Camera Glass","emissiveFactor":[0,0,0],"occlusionTexture":{"index":5,"strength":1,"extensions":{"KHR_texture_transform":{"offset":[0,0],"scale":[1,1],"rotation":0}},"texCoord":1},"extensions":{},"alphaMode":"BLEND","doubleSided":false},{"pbrMetallicRoughness":{"baseColorFactor":[0,0,0,1],"metallicFactor":0,"roughnessFactor":0},"name":"Camera Rims","emissiveFactor":[0,0,0],"occlusionTexture":{"index":5,"strength":1,"extensions":{"KHR_texture_transform":{"offset":[0,0],"scale":[1,1],"rotation":0}},"texCoord":1},"extensions":{},"alphaMode":"OPAQUE","doubleSided":false}],"textures":[{"sampler":0,"source":0},{"sampler":0,"source":1},{"sampler":0,"source":2},{"sampler":0,"source":3},{"sampler":0,"source":4},{"sampler":0,"source":5},{"sampler":0,"source":6}],"images":[{"uri":"colorTexture&Android_2_Plane_TRANS.png","mimeType":"image/png"},{"uri":"image&image.png","mimeType":"image/png"},{"uri":"image.jpg","mimeType":"image/jpeg"},{"uri":"Android_2_Led_1.jpg","mimeType":"image/jpeg"},{"uri":"Android_2_Led.jpg","mimeType":"image/jpeg"},{"uri":"White.jpg","mimeType":"image/jpeg"},{"uri":"Android_2_AO_1.jpg","mimeType":"image/jpeg"}],"samplers":[{"wrapS":10497,"wrapT":10497}],"meshes":[{"primitives":[{"mode":4,"attributes":{"POSITION":1,"NORMAL":2,"TEXCOORD_0":3},"material":0,"indices":0}]},{"primitives":[{"mode":4,"attributes":{"POSITION":5,"NORMAL":6,"TEXCOORD_0":7},"material":1,"indices":4}]},{"primitives":[{"mode":4,"attributes":{"POSITION":9,"NORMAL":10,"TEXCOORD_0":11,"TEXCOORD_1":12},"material":2,"indices":8}]},{"primitives":[{"mode":4,"attributes":{"POSITION":14,"NORMAL":15,"TEXCOORD_0":16,"TEXCOORD_1":17},"material":3,"indices":13}]},{"primitives":[{"mode":4,"attributes":{"POSITION":19,"NORMAL":20,"TEXCOORD_0":21,"TEXCOORD_1":22},"material":4,"indices":18}]},{"primitives":[{"mode":4,"attributes":{"POSITION":24,"NORMAL":25,"TEXCOORD_0":26,"TEXCOORD_1":27},"material":5,"indices":23}]},{"primitives":[{"mode":4,"attributes":{"POSITION":29,"NORMAL":30,"TEXCOORD_0":31,"TEXCOORD_1":32},"material":6,"indices":28}]},{"primitives":[{"mode":4,"attributes":{"POSITION":34,"NORMAL":35,"TEXCOORD_0":36,"TEXCOORD_1":37},"material":7,"indices":33}]},{"primitives":[{"mode":4,"attributes":{"POSITION":39,"NORMAL":40,"TEXCOORD_0":41,"TEXCOORD_1":42},"material":8,"indices":38}]},{"primitives":[{"mode":4,"attributes":{"POSITION":44,"NORMAL":45,"TEXCOORD_0":46,"TEXCOORD_1":47},"material":9,"indices":43}]},{"primitives":[{"mode":4,"attributes":{"POSITION":49,"NORMAL":50,"TEXCOORD_0":51,"TEXCOORD_1":52},"material":10,"indices":48}]},{"primitives":[{"mode":4,"attributes":{"POSITION":54,"NORMAL":55,"TEXCOORD_0":56,"TEXCOORD_1":57},"material":11,"indices":53}]},{"primitives":[{"mode":4,"attributes":{"POSITION":59,"NORMAL":60,"TEXCOORD_0":61,"TEXCOORD_1":62},"material":12,"indices":58}]}],"accessors":[{"bufferView":0,"byteOffset":0,"componentType":5125,"count":6,"type":"SCALAR"},{"bufferView":1,"byteOffset":0,"componentType":5126,"count":4,"max":[166.3697967529297,166.3697967529297,3.694151579146203e-14],"min":[-166.3697967529297,-166.3697967529297,-3.694151579146203e-14],"type":"VEC3"},{"bufferView":2,"byteOffset":0,"componentType":5126,"count":4,"type":"VEC3"},{"bufferView":3,"byteOffset":0,"componentType":5126,"count":4,"type":"VEC2"},{"bufferView":4,"byteOffset":0,"componentType":5125,"count":9210,"type":"SCALAR"},{"bufferView":5,"byteOffset":0,"componentType":5126,"count":1600,"max":[33.861000061035156,13.030998229980469,146.40589904785156],"min":[-34.340003967285156,-24.430999755859375,6.59499979019165],"type":"VEC3"},{"bufferView":6,"byteOffset":0,"componentType":5126,"count":1600,"type":"VEC3"},{"bufferView":7,"byteOffset":0,"componentType":5126,"count":1600,"type":"VEC2"},{"bufferView":8,"byteOffset":0,"componentType":5125,"count":6,"type":"SCALAR"},{"bufferView":9,"byteOffset":0,"componentType":5126,"count":4,"max":[21.292999267578125,18.121000289916992,131.8759002685547],"min":[15.573999404907227,16.639999389648438,126.35090637207031],"type":"VEC3"},{"bufferView":10,"byteOffset":0,"componentType":5126,"count":4,"type":"VEC3"},{"bufferView":11,"byteOffset":0,"componentType":5126,"count":4,"type":"VEC2"},{"bufferView":12,"byteOffset":0,"componentType":5126,"count":4,"type":"VEC2"},{"bufferView":13,"byteOffset":0,"componentType":5125,"count":21258,"type":"SCALAR"},{"bufferView":14,"byteOffset":0,"componentType":5126,"count":3676,"max":[35.82500457763672,22.78499984741211,152.84190368652344],"min":[-36.2760009765625,-18.645999908447266,0.968999981880188],"type":"VEC3"},{"bufferView":15,"byteOffset":0,"componentType":5126,"count":3676,"type":"VEC3"},{"bufferView":16,"byteOffset":0,"componentType":5126,"count":3676,"type":"VEC2"},{"bufferView":17,"byteOffset":0,"componentType":5126,"count":3676,"type":"VEC2"},{"bufferView":18,"byteOffset":0,"componentType":5125,"count":145230,"type":"SCALAR"},{"bufferView":19,"byteOffset":0,"componentType":5126,"count":26269,"max":[37.871002197265625,22.737998962402344,155.4329071044922],"min":[-37.84700012207031,-24.79300308227539,0.03999999910593033],"type":"VEC3"},{"bufferView":20,"byteOffset":0,"componentType":5126,"count":26269,"type":"VEC3"},{"bufferView":21,"byteOffset":0,"componentType":5126,"count":26269,"type":"VEC2"},{"bufferView":22,"byteOffset":0,"componentType":5126,"count":26269,"type":"VEC2"},{"bufferView":23,"byteOffset":0,"componentType":5125,"count":15462,"type":"SCALAR"},{"bufferView":24,"byteOffset":0,"componentType":5126,"count":2904,"max":[24.31399917602539,17.48999786376953,151.3079071044922],"min":[-24.869998931884766,-22.972999572753906,0.6990000009536743],"type":"VEC3"},{"bufferView":25,"byteOffset":0,"componentType":5126,"count":2904,"type":"VEC3"},{"bufferView":26,"byteOffset":0,"componentType":5126,"count":2904,"type":"VEC2"},{"bufferView":27,"byteOffset":0,"componentType":5126,"count":2904,"type":"VEC2"},{"bufferView":28,"byteOffset":0,"componentType":5125,"count":7104,"type":"SCALAR"},{"bufferView":29,"byteOffset":0,"componentType":5126,"count":1300,"max":[37.871002197265625,10.49899959564209,117.9458999633789],"min":[32.11700439453125,6.197999954223633,108.22689819335938],"type":"VEC3"},{"bufferView":30,"byteOffset":0,"componentType":5126,"count":1300,"type":"VEC3"},{"bufferView":31,"byteOffset":0,"componentType":5126,"count":1300,"type":"VEC2"},{"bufferView":32,"byteOffset":0,"componentType":5126,"count":1300,"type":"VEC2"},{"bufferView":33,"byteOffset":0,"componentType":5125,"count":59040,"type":"SCALAR"},{"bufferView":34,"byteOffset":0,"componentType":5126,"count":10661,"max":[36.125,16.047996520996094,154.7888946533203],"min":[-36.576995849609375,-25.051998138427734,2.4730000495910645],"type":"VEC3"},{"bufferView":35,"byteOffset":0,"componentType":5126,"count":10661,"type":"VEC3"},{"bufferView":36,"byteOffset":0,"componentType":5126,"count":10661,"type":"VEC2"},{"bufferView":37,"byteOffset":0,"componentType":5126,"count":10661,"type":"VEC2"},{"bufferView":38,"byteOffset":0,"componentType":5125,"count":17280,"type":"SCALAR"},{"bufferView":39,"byteOffset":0,"componentType":5126,"count":3212,"max":[31.04199981689453,22.802997589111328,148.81491088867188],"min":[6,15.136000633239746,124.43790435791016],"type":"VEC3"},{"bufferView":40,"byteOffset":0,"componentType":5126,"count":3212,"type":"VEC3"},{"bufferView":41,"byteOffset":0,"componentType":5126,"count":3212,"type":"VEC2"},{"bufferView":42,"byteOffset":0,"componentType":5126,"count":3212,"type":"VEC2"},{"bufferView":43,"byteOffset":0,"componentType":5125,"count":44448,"type":"SCALAR"},{"bufferView":44,"byteOffset":0,"componentType":5126,"count":8120,"max":[30.54400062561035,22.716999053955078,148.2388916015625],"min":[6.498000144958496,15.613999366760254,124.8698959350586],"type":"VEC3"},{"bufferView":45,"byteOffset":0,"componentType":5126,"count":8120,"type":"VEC3"},{"bufferView":46,"byteOffset":0,"componentType":5126,"count":8120,"type":"VEC2"},{"bufferView":47,"byteOffset":0,"componentType":5126,"count":8120,"type":"VEC2"},{"bufferView":48,"byteOffset":0,"componentType":5125,"count":18432,"type":"SCALAR"},{"bufferView":49,"byteOffset":0,"componentType":5126,"count":3303,"max":[26.465999603271484,21.5989990234375,150.71189880371094],"min":[-17.619001388549805,14.007000923156738,135.2519073486328],"type":"VEC3"},{"bufferView":50,"byteOffset":0,"componentType":5126,"count":3303,"type":"VEC3"},{"bufferView":51,"byteOffset":0,"componentType":5126,"count":3303,"type":"VEC2"},{"bufferView":52,"byteOffset":0,"componentType":5126,"count":3303,"type":"VEC2"},{"bufferView":53,"byteOffset":0,"componentType":5125,"count":768,"type":"SCALAR"},{"bufferView":54,"byteOffset":0,"componentType":5126,"count":518,"max":[27.791000366210938,21.91299819946289,151.5388946533203],"min":[-18.364999771118164,13.614999771118164,126.85090637207031],"type":"VEC3"},{"bufferView":55,"byteOffset":0,"componentType":5126,"count":518,"type":"VEC3"},{"bufferView":56,"byteOffset":0,"componentType":5126,"count":518,"type":"VEC2"},{"bufferView":57,"byteOffset":0,"componentType":5126,"count":518,"type":"VEC2"},{"bufferView":58,"byteOffset":0,"componentType":5125,"count":52224,"type":"SCALAR"},{"bufferView":59,"byteOffset":0,"componentType":5126,"count":17589,"max":[27.748001098632812,20,151.5458984375],"min":[-18.387001037597656,13.625,133.8529052734375],"type":"VEC3"},{"bufferView":60,"byteOffset":0,"componentType":5126,"count":17589,"type":"VEC3"},{"bufferView":61,"byteOffset":0,"componentType":5126,"count":17589,"type":"VEC2"},{"bufferView":62,"byteOffset":0,"componentType":5126,"count":17589,"type":"VEC2"}],"bufferViews":[{"buffer":0,"byteOffset":0,"byteLength":24,"target":34963},{"buffer":0,"byteOffset":24,"byteLength":48,"target":34962},{"buffer":0,"byteOffset":72,"byteLength":48,"target":34962},{"buffer":0,"byteOffset":120,"byteLength":32,"target":34962},{"buffer":0,"byteOffset":152,"byteLength":36840,"target":34963},{"buffer":0,"byteOffset":36992,"byteLength":19200,"target":34962},{"buffer":0,"byteOffset":56192,"byteLength":19200,"target":34962},{"buffer":0,"byteOffset":75392,"byteLength":12800,"target":34962},{"buffer":0,"byteOffset":88192,"byteLength":24,"target":34963},{"buffer":0,"byteOffset":88216,"byteLength":48,"target":34962},{"buffer":0,"byteOffset":88264,"byteLength":48,"target":34962},{"buffer":0,"byteOffset":88312,"byteLength":32,"target":34962},{"buffer":0,"byteOffset":88344,"byteLength":32,"target":34962},{"buffer":0,"byteOffset":88376,"byteLength":85032,"target":34963},{"buffer":0,"byteOffset":173408,"byteLength":44112,"target":34962},{"buffer":0,"byteOffset":217520,"byteLength":44112,"target":34962},{"buffer":0,"byteOffset":261632,"byteLength":29408,"target":34962},{"buffer":0,"byteOffset":291040,"byteLength":29408,"target":34962},{"buffer":0,"byteOffset":320448,"byteLength":580920,"target":34963},{"buffer":0,"byteOffset":901368,"byteLength":315228,"target":34962},{"buffer":0,"byteOffset":1216596,"byteLength":315228,"target":34962},{"buffer":0,"byteOffset":1531824,"byteLength":210152,"target":34962},{"buffer":0,"byteOffset":1741976,"byteLength":210152,"target":34962},{"buffer":0,"byteOffset":1952128,"byteLength":61848,"target":34963},{"buffer":0,"byteOffset":2013976,"byteLength":34848,"target":34962},{"buffer":0,"byteOffset":2048824,"byteLength":34848,"target":34962},{"buffer":0,"byteOffset":2083672,"byteLength":23232,"target":34962},{"buffer":0,"byteOffset":2106904,"byteLength":23232,"target":34962},{"buffer":0,"byteOffset":2130136,"byteLength":28416,"target":34963},{"buffer":0,"byteOffset":2158552,"byteLength":15600,"target":34962},{"buffer":0,"byteOffset":2174152,"byteLength":15600,"target":34962},{"buffer":0,"byteOffset":2189752,"byteLength":10400,"target":34962},{"buffer":0,"byteOffset":2200152,"byteLength":10400,"target":34962},{"buffer":0,"byteOffset":2210552,"byteLength":236160,"target":34963},{"buffer":0,"byteOffset":2446712,"byteLength":127932,"target":34962},{"buffer":0,"byteOffset":2574644,"byteLength":127932,"target":34962},{"buffer":0,"byteOffset":2702576,"byteLength":85288,"target":34962},{"buffer":0,"byteOffset":2787864,"byteLength":85288,"target":34962},{"buffer":0,"byteOffset":2873152,"byteLength":69120,"target":34963},{"buffer":0,"byteOffset":2942272,"byteLength":38544,"target":34962},{"buffer":0,"byteOffset":2980816,"byteLength":38544,"target":34962},{"buffer":0,"byteOffset":3019360,"byteLength":25696,"target":34962},{"buffer":0,"byteOffset":3045056,"byteLength":25696,"target":34962},{"buffer":0,"byteOffset":3070752,"byteLength":177792,"target":34963},{"buffer":0,"byteOffset":3248544,"byteLength":97440,"target":34962},{"buffer":0,"byteOffset":3345984,"byteLength":97440,"target":34962},{"buffer":0,"byteOffset":3443424,"byteLength":64960,"target":34962},{"buffer":0,"byteOffset":3508384,"byteLength":64960,"target":34962},{"buffer":0,"byteOffset":3573344,"byteLength":73728,"target":34963},{"buffer":0,"byteOffset":3647072,"byteLength":39636,"target":34962},{"buffer":0,"byteOffset":3686708,"byteLength":39636,"target":34962},{"buffer":0,"byteOffset":3726344,"byteLength":26424,"target":34962},{"buffer":0,"byteOffset":3752768,"byteLength":26424,"target":34962},{"buffer":0,"byteOffset":3779192,"byteLength":3072,"target":34963},{"buffer":0,"byteOffset":3782264,"byteLength":6216,"target":34962},{"buffer":0,"byteOffset":3788480,"byteLength":6216,"target":34962},{"buffer":0,"byteOffset":3794696,"byteLength":4144,"target":34962},{"buffer":0,"byteOffset":3798840,"byteLength":4144,"target":34962},{"buffer":0,"byteOffset":3802984,"byteLength":208896,"target":34963},{"buffer":0,"byteOffset":4011880,"byteLength":211068,"target":34962},{"buffer":0,"byteOffset":4222948,"byteLength":211068,"target":34962},{"buffer":0,"byteOffset":4434016,"byteLength":140712,"target":34962},{"buffer":0,"byteOffset":4574728,"byteLength":140712,"target":34962}],"scene":0,"scenes":[{"nodes":[0,1,2,3,4,5,6,7,8,9,10,11,12,13],"name":"Phone 3 (template)"}],"extensionsUsed":["KHR_texture_transform"],"buffers":[{"byteLength":4715440,"uri":"Phone3 (template).bin"}]}